Coordinates
version=1
nRows=19
nColumns=34
inDegrees=yes

Units are S.I. units (second, meters, Newtons, ...)
If the header above contains a line with 'inDegrees', this indicates whether rotational values are in degrees (yes) or radians (no).

endheader
time	pelvis_tilt	pelvis_list	pelvis_rotation	pelvis_tx	pelvis_ty	pelvis_tz	hip_flexion_r	hip_adduction_r	hip_rotation_r	knee_angle_r	ankle_angle_r	subtalar_angle_r	mtp_angle_r	hip_flexion_l	hip_adduction_l	hip_rotation_l	knee_angle_l	ankle_angle_l	subtalar_angle_l	mtp_angle_l	lumbar_extension	lumbar_bending	lumbar_rotation	arm_flex_r	arm_add_r	arm_rot_r	elbow_flex_r	pro_sup_r	arm_flex_l	arm_add_l	arm_rot_l	elbow_flex_l	pro_sup_l
      7.01666670	     -2.50877937	      1.75208489	    -63.35060354	      0.13609195	      0.99239640	     -0.11671339	     -0.57698836	     -0.29804974	     -3.47490877	      5.50084919	     10.78650077	      1.45640037	      0.00000000	     -2.33084332	      1.02382501	     -5.76292905	      3.46710334	     10.66900874	      2.62908803	      0.00000000	     -3.23080452	      1.52026872	     -1.28695569	    -60.69017041	    -82.81473578	   -114.05484443	     39.11456318	    119.74817918	     99.39385070	   -106.66650416	     49.10608350	     33.74542677	    119.74817918
      7.03333330	     -2.50960315	      1.75170551	    -63.35142406	      0.13612533	      0.99238954	     -0.11672572	     -0.57674100	     -0.29868065	     -3.47491662	      5.50069939	     10.78649810	      1.45632750	      0.00000000	     -2.33047253	      1.02355753	     -5.76279942	      3.46692678	     10.66895028	      2.62923122	      0.00000000	     -3.23138450	      1.52007713	     -1.28711500	    -60.69051699	    -82.81518401	   -114.05458707	     39.11497621	    119.74817918	     99.39340657	   -106.66582988	     49.10617491	     33.74579908	    119.74817918
      7.05000000	     -2.50983602	      1.72655703	    -63.46369711	      0.13608285	      0.99241719	     -0.11686713	     -0.53835487	     -0.30375312	     -3.44148329	      5.56889741	     10.75271502	      1.44456552	      0.00000000	     -2.33794082	      1.01738953	     -5.71822775	      3.50918019	     10.64214566	      2.69283254	      0.00000000	     -3.23224040	      1.54350012	     -1.17765013	    -60.91794289	    -82.86256428	   -113.90825014	     39.27973834	    119.74817918	     99.13007990	   -106.60679977	     49.14228861	     33.84103513	    119.74817918
      7.06666670	     -2.51139453	      1.72785741	    -63.46476862	      0.13614170	      0.99242645	     -0.11689767	     -0.53786425	     -0.30418558	     -3.44134851	      5.56848244	     10.75286105	      1.44452445	      0.00000000	     -2.33829146	      1.01728926	     -5.71865123	      3.50885792	     10.64237374	      2.69262996	      0.00000000	     -3.23359152	      1.54332612	     -1.17870353	    -60.91833536	    -82.86183009	   -113.90807974	     39.27965454	    119.74817918	     99.12946174	   -106.60655036	     49.14233610	     33.84115467	    119.74817918
      7.08333330	     -2.51347846	      1.72819760	    -63.46598849	      0.13622464	      0.99241012	     -0.11694148	     -0.53658075	     -0.30538155	     -3.44118859	      5.56753234	     10.75306754	      1.44444855	      0.00000000	     -2.33852865	      1.01790635	     -5.71911917	      3.50846909	     10.64259285	      2.69245778	      0.00000000	     -3.23531660	      1.54415069	     -1.17972799	    -60.91887157	    -82.86092615	   -113.90773381	     39.27948408	    119.74817918	     99.12866112	   -106.60609063	     49.14232149	     33.84139498	    119.74817918
      7.10000000	     -2.52206170	      1.73125585	    -63.46701366	      0.13645806	      0.99241850	     -0.11724666	     -0.52086205	     -0.32556126	     -3.43886489	      5.55412569	     10.75623541	      1.44312586	      0.00000000	     -2.32679836	      1.03711214	     -5.72622119	      3.49509623	     10.64664150	      2.69020572	      0.00000000	     -3.26096182	      1.58354613	     -1.17958752	    -60.92903194	    -82.84897841	   -113.90026503	     39.27602372	    119.74817918	     99.11497190	   -106.60308237	     49.14066667	     33.84424936	    119.74817918
      7.11666670	     -2.52238890	      1.73087449	    -63.46675061	      0.13649416	      0.99242666	     -0.11726239	     -0.52073002	     -0.32532076	     -3.43881379	      5.55400564	     10.75627347	      1.44312937	      0.00000000	     -2.32616644	      1.03700841	     -5.72636843	      3.49460523	     10.64673919	      2.69014048	      0.00000000	     -3.26134086	      1.58276737	     -1.17908085	    -60.92926390	    -82.84903230	   -113.90014606	     39.27606658	    119.74817918	     99.11471145	   -106.60328409	     49.14067192	     33.84411976	    119.74817918
      7.13333330	     -2.52634748	      1.72909594	    -63.46557367	      0.13658333	      0.99243432	     -0.11730647	     -0.52078757	     -0.32617261	     -3.43869744	      5.55369363	     10.75639983	      1.44305945	      0.00000000	     -2.32420795	      1.03777597	     -5.72677322	      3.49321787	     10.64699463	      2.69001816	      0.00000000	     -3.26279155	      1.58054166	     -1.17707310	    -60.92998451	    -82.84931866	   -113.89971078	     39.27615124	    119.74817918	     99.11395357	   -106.60393916	     49.14065391	     33.84363581	    119.74817918
      7.15000000	     -2.52991876	      1.72798279	    -63.46387324	      0.13666821	      0.99243878	     -0.11730198	     -0.52064683	     -0.32742502	     -3.43859408	      5.55320085	     10.75654018	      1.44297388	      0.00000000	     -2.32198266	      1.03892504	     -5.72712633	      3.49177790	     10.64721413	      2.68994804	      0.00000000	     -3.26498177	      1.57964684	     -1.17459272	    -60.93074197	    -82.84979657	   -113.89916618	     39.27621126	    119.74817918	     99.11319341	   -106.60448209	     49.14058136	     33.84317888	    119.74817918
      7.16666670	     -2.53905145	      1.73148001	    -63.44975528	      0.13684307	      0.99242859	     -0.11746372	     -0.51571417	     -0.33689152	     -3.43780497	      5.54547836	     10.75800829	      1.44218379	      0.00000000	     -2.30720075	      1.05062635	     -5.73090830	      3.48105536	     10.64921342	      2.68928563	      0.00000000	     -3.28412202	      1.59419807	     -1.15524105	    -60.93874682	    -82.84974698	   -113.89332745	     39.27429671	    119.74817918	     99.10416337	   -106.60838968	     49.13925676	     33.83937393	    119.74817918
      7.18333330	     -2.54045199	      1.73178282	    -63.45111635	      0.13691362	      0.99241007	     -0.11749031	     -0.51471201	     -0.33721516	     -3.43777408	      5.54461133	     10.75809426	      1.44214128	      0.00000000	     -2.30703605	      1.05086386	     -5.73114828	      3.48080051	     10.64928059	      2.68924398	      0.00000000	     -3.28560178	      1.59392628	     -1.15600883	    -60.93921206	    -82.84934335	   -113.89307383	     39.27406881	    119.74817918	     99.10346138	   -106.60793003	     49.13929785	     33.83926425	    119.74817918
      7.20000000	     -2.54956382	      1.73797116	    -63.45530782	      0.13710622	      0.99240112	     -0.11776738	     -0.49739503	     -0.35570292	     -3.43697541	      5.52562300	     10.76024055	      1.44093935	      0.00000000	     -2.29010197	      1.07120132	     -5.73629779	      3.46941977	     10.65083032	      2.68919847	      0.00000000	     -3.31560036	      1.62991719	     -1.15045619	    -60.95137672	    -82.84375928	   -113.88476859	     39.26900712	    119.74817918	     99.08656463	   -106.60298602	     49.13694876	     33.83700717	    119.74817918
      7.21666670	     -2.54993677	      1.73860264	    -63.45529150	      0.13717605	      0.99239494	     -0.11778297	     -0.49705910	     -0.35521250	     -3.43692569	      5.52523470	     10.76023034	      1.44097966	      0.00000000	     -2.28951315	      1.07096489	     -5.73645617	      3.46904670	     10.65083639	      2.68918334	      0.00000000	     -3.31667062	      1.62911206	     -1.14982596	    -60.95177312	    -82.84405703	   -113.88457729	     39.26905062	    119.74817918	     99.08601793	   -106.60298747	     49.13687979	     33.83679384	    119.74817918
      7.23333330	     -2.55056750	      1.73823848	    -63.45494284	      0.13724315	      0.99238859	     -0.11777891	     -0.49584546	     -0.35567299	     -3.43685978	      5.52424587	     10.76025754	      1.44099228	      0.00000000	     -2.28863339	      1.07151601	     -5.73660771	      3.46858860	     10.65080139	      2.68923157	      0.00000000	     -3.31807275	      1.62962536	     -1.14886047	    -60.95225025	    -82.84437925	   -113.88429520	     39.26907143	    119.74817918	     99.08532188	   -106.60292191	     49.13664880	     33.83668202	    119.74817918
      7.25000000	     -2.55121149	      1.73901946	    -63.45463657	      0.13731226	      0.99239377	     -0.11783053	     -0.49454378	     -0.35684686	     -3.43680399	      5.52298652	     10.76030203	      1.44097438	      0.00000000	     -2.28835938	      1.07230910	     -5.73680606	      3.46842052	     10.65071850	      2.68931180	      0.00000000	     -3.31964006	      1.63184206	     -1.14763466	    -60.95285175	    -82.84465592	   -113.88391622	     39.26903539	    119.74817918	     99.08434916	   -106.60273844	     49.13616406	     33.83669913	    119.74817918
      7.26666670	     -2.55676467	      1.74278236	    -63.45444792	      0.13757196	      0.99236391	     -0.11811481	     -0.47789781	     -0.38088052	     -3.43600180	      5.50415947	     10.76047247	      1.44070622	      0.00000000	     -2.27082344	      1.09585967	     -5.73938031	      3.46051418	     10.64904323	      2.69149735	      0.00000000	     -3.34446041	      1.68324804	     -1.13504828	    -60.96161488	    -82.84725502	   -113.87920864	     39.26736581	    119.74817918	     99.06791114	   -106.59726179	     49.12701122	     33.83857844	    119.74817918
      7.28333330	     -2.55662303	      1.74455867	    -63.45486216	      0.13758611	      0.99237085	     -0.11816138	     -0.47804210	     -0.38042928	     -3.43598804	      5.50407126	     10.76041812	      1.44075515	      0.00000000	     -2.27133085	      1.09539877	     -5.73947763	      3.46073478	     10.64898684	      2.69149007	      0.00000000	     -3.34477925	      1.68318951	     -1.13513664	    -60.96175820	    -82.84736525	   -113.87924747	     39.26735411	    119.74817918	     99.06753455	   -106.59716317	     49.12682503	     33.83853247	    119.74817918
      7.30000000	     -2.55542184	      1.74436007	    -63.45532731	      0.13762633	      0.99236311	     -0.11816628	     -0.47684602	     -0.38036101	     -3.43594024	      5.50327746	     10.76038666	      1.44080911	      0.00000000	     -2.27104073	      1.09493081	     -5.73955439	      3.46056323	     10.64893129	      2.69150314	      0.00000000	     -3.34523777	      1.68365702	     -1.13531768	    -60.96189918	    -82.84737568	   -113.87927647	     39.26727954	    119.74817918	     99.06712732	   -106.59699549	     49.12658410	     33.83853028	    119.74817918
      7.31666670	     -2.55959904	      1.74574051	    -63.46472409	      0.13772408	      0.99226115	     -0.11836720	     -0.46067653	     -0.39722898	     -3.43501333	      5.48810160	     10.75960741	      1.44126646	      0.00000000	     -2.26654522	      1.10181703	     -5.74158529	      3.45886214	     10.64701418	      2.69269299	      0.00000000	     -3.35769482	      1.70895937	     -1.13882135	    -60.96557615	    -82.84469500	   -113.87984016	     39.26316970	    119.74817918	     99.05611553	   -106.59389299	     49.11887567	     33.83802428	    119.74817918
